<svg width="28" height="28" viewBox="0 0 28 28" fill="none" xmlns="http://www.w3.org/2000/svg">
<path fill-rule="evenodd" clip-rule="evenodd" d="M5.30556 5.23137C5.69348 4.83827 6.32664 4.83407 6.71974 5.222L14.0019 12.4083L21.284 5.222C21.6771 4.83407 22.3103 4.83827 22.6982 5.23137C23.0861 5.62448 23.0819 6.25763 22.6888 6.64555L15.4256 13.8132L22.6888 20.9808C23.0819 21.3688 23.0861 22.0019 22.6982 22.395C22.3103 22.7881 21.6771 22.7923 21.284 22.4044L14.0019 15.2181L6.71974 22.4044C6.32664 22.7923 5.69348 22.7881 5.30556 22.395C4.91763 22.0019 4.92183 21.3688 5.31493 20.9808L12.5782 13.8132L5.31493 6.64555C4.92183 6.25763 4.91763 5.62448 5.30556 5.23137Z" fill="#232323"/>
</svg>
