<svg width="28" height="28" viewBox="0 0 28 28" fill="none" xmlns="http://www.w3.org/2000/svg">
<path fill-rule="evenodd" clip-rule="evenodd" d="M13.8185 2.48459C13.8671 2.48464 13.9164 2.48469 13.9662 2.48469C14.0161 2.48469 14.0653 2.48464 14.114 2.48459C14.8432 2.48386 15.4359 2.48326 15.9448 2.65189C16.884 2.96315 17.6353 3.68341 17.9646 4.61745C18.0837 4.95508 18.1231 5.32952 18.1358 5.74914H22.9451C23.4915 5.74914 23.9344 6.19206 23.9344 6.73843C23.9344 7.2848 23.4915 7.72772 22.9451 7.72772H4.98733C4.44097 7.72772 3.99805 7.2848 3.99805 6.73843C3.99805 6.19206 4.44097 5.74914 4.98733 5.74914H9.79661C9.80939 5.32952 9.84879 4.95508 9.96782 4.61745C10.2971 3.68342 11.0484 2.96315 11.9877 2.65189C12.4965 2.48326 13.0893 2.48386 13.8185 2.48459ZM11.7776 5.74914H16.1548C16.146 5.47182 16.1288 5.36089 16.0986 5.27532C15.9787 4.93501 15.6975 4.65434 15.3224 4.53002C15.1592 4.47594 14.9213 4.46326 13.9662 4.46326C13.0112 4.46326 12.7732 4.47594 12.6101 4.53002C12.2349 4.65434 11.9538 4.93501 11.8338 5.27532C11.8037 5.36089 11.7865 5.47182 11.7776 5.74914ZM6.54936 9.02109C7.09159 8.95398 7.58556 9.33914 7.65267 9.88137L8.74296 18.6902C8.89024 19.8801 8.99203 20.6905 9.13936 21.3039C9.28126 21.8947 9.44254 22.1951 9.64371 22.4085C9.75464 22.5261 9.87841 22.6326 10.0132 22.7262C10.2621 22.8989 10.6001 23.0216 11.2325 23.0889C11.8842 23.1583 12.732 23.1596 13.9662 23.1596C15.2004 23.1596 16.0483 23.1583 16.7 23.0889C17.3323 23.0216 17.6703 22.8989 17.9193 22.7262C18.054 22.6326 18.1778 22.5261 18.2887 22.4085C18.4899 22.1951 18.6512 21.8947 18.7931 21.3039C18.9404 20.6905 19.0422 19.8801 19.1895 18.6902L20.2798 9.88137C20.3469 9.33914 20.8409 8.95398 21.3831 9.02109C21.9253 9.0882 22.3105 9.58217 22.2434 10.1244L21.1461 18.9898C21.0076 20.1091 20.8935 21.0311 20.7169 21.766C20.532 22.5359 20.2564 23.2059 19.7282 23.7659C19.5224 23.9841 19.2942 24.1803 19.0473 24.3517C18.4174 24.7888 17.7095 24.9712 16.9094 25.0563C16.1407 25.1382 15.1872 25.1382 14.0208 25.1381H13.9117C12.7453 25.1382 11.7918 25.1382 11.023 25.0563C10.2229 24.9712 9.5151 24.7888 8.88512 24.3517C8.63827 24.1803 8.41002 23.9841 8.20428 23.7659C7.67609 23.2059 7.40044 22.5359 7.21551 21.766C7.03898 21.031 6.92488 20.109 6.78637 18.9898L5.68908 10.1244C5.62197 9.58217 6.00713 9.0882 6.54936 9.02109Z" fill="#DF2C2C"/>
</svg>
