<svg width="24" height="24" viewBox="0 0 24 24" fill="none" xmlns="http://www.w3.org/2000/svg">
<path fill-rule="evenodd" clip-rule="evenodd" d="M9.8999 21.9C9.40285 21.9 8.9999 21.497 8.9999 21L8.9999 12C8.9999 11.5029 9.40284 11.1 9.8999 11.1C10.397 11.1 10.7999 11.5029 10.7999 12V21C10.7999 21.497 10.397 21.9 9.8999 21.9ZM13.8999 21.9C13.4028 21.9 12.9999 21.497 12.9999 21L12.9999 7.99998C12.9999 7.50292 13.4028 7.09998 13.8999 7.09998C14.397 7.09998 14.7999 7.50292 14.7999 7.99998L14.7999 21C14.7999 21.497 14.397 21.9 13.8999 21.9ZM17.8999 21.9C17.4028 21.9 16.9999 21.497 16.9999 21L16.9999 2.99998C16.9999 2.50292 17.4028 2.09998 17.8999 2.09998C18.397 2.09998 18.7999 2.50292 18.7999 2.99998L18.7999 21C18.7999 21.497 18.397 21.9 17.8999 21.9Z" fill="#007AFF"/>
<path fill-rule="evenodd" clip-rule="evenodd" d="M5.9 21.9C5.40294 21.9 5 21.4971 5 21L5 16C5 15.5029 5.40294 15.1 5.9 15.1C6.39706 15.1 6.8 15.5029 6.8 16L6.8 21C6.8 21.4971 6.39706 21.9 5.9 21.9Z" fill="#007AFF"/>
</svg>
