<svg width="28" height="28" viewBox="0 0 28 28" fill="none" xmlns="http://www.w3.org/2000/svg">
<path fill-rule="evenodd" clip-rule="evenodd" d="M14.3412 4.2612C13.9574 4.6501 13.9616 5.27646 14.3504 5.66024L20.3163 11.5476H15.639C13.3988 11.5476 11.6287 11.5476 10.23 11.7139C8.79568 11.8845 7.62282 12.242 6.64683 13.0503C6.33207 13.311 6.04245 13.6006 5.78177 13.9154C4.97345 14.8914 4.61599 16.0642 4.44537 17.4986C4.279 18.8973 4.27901 20.6673 4.27903 22.9075V22.9728C4.27903 23.5191 4.72194 23.962 5.26831 23.962C5.81468 23.962 6.2576 23.5191 6.2576 22.9728C6.2576 20.6529 6.25924 19.0005 6.4101 17.7323C6.55832 16.4862 6.83854 15.7413 7.30559 15.1774C7.48738 14.9579 7.68936 14.7559 7.90886 14.5741C8.47278 14.1071 9.21762 13.8269 10.4637 13.6787C11.732 13.5278 13.3843 13.5262 15.7042 13.5262H20.3164L15.0488 18.7243C14.6599 19.1081 14.6558 19.7345 15.0395 20.1234C15.4233 20.5123 16.0497 20.5164 16.4386 20.1326L23.4221 13.241C23.6105 13.0551 23.7166 12.8015 23.7166 12.5369C23.7166 12.2722 23.6105 12.0186 23.4221 11.8327L15.7402 4.25193C15.3513 3.86816 14.7249 3.87231 14.3412 4.2612Z" fill="#232323"/>
</svg>
